G04 Generated by Ultiboard 13.0 *
%FSLAX25Y25*%
%MOIN*%

%ADD10C,0.00001*%
%ADD11C,0.00800*%
%ADD12C,0.00889*%
%ADD13C,0.00533*%
%ADD14C,0.00787*%
%ADD15C,0.00005*%
%ADD16C,0.00500*%


G04 ColorRGB FFFF00 for the following layer *
%LNSilkscreen Top*%
%LPD*%
G54D10*
G54D11*
X261400Y62700D02*
X261324Y64443D01*
X261096Y66173D01*
X260719Y67876D01*
X260194Y69540D01*
X259526Y71152D01*
X258721Y72700D01*
X257783Y74172D01*
X256721Y75556D01*
X255542Y76842D01*
X254256Y78021D01*
X252872Y79083D01*
X251400Y80021D01*
X249852Y80826D01*
X248240Y81494D01*
X246576Y82019D01*
X244873Y82396D01*
X243143Y82624D01*
X241400Y82700D01*
X239657Y82624D01*
X237927Y82396D01*
X236224Y82019D01*
X234560Y81494D01*
X232948Y80826D01*
X231400Y80021D01*
X229928Y79083D01*
X228544Y78021D01*
X227258Y76842D01*
X226079Y75556D01*
X225017Y74172D01*
X224079Y72700D01*
X223274Y71152D01*
X222606Y69540D01*
X222081Y67876D01*
X221704Y66173D01*
X221476Y64443D01*
X221400Y62700D01*
X221476Y60957D01*
X221704Y59227D01*
X222081Y57524D01*
X222606Y55860D01*
X223274Y54248D01*
X224079Y52700D01*
X225017Y51228D01*
X226079Y49844D01*
X227258Y48558D01*
X228544Y47379D01*
X229928Y46317D01*
X231400Y45379D01*
X232948Y44574D01*
X234560Y43906D01*
X236224Y43381D01*
X237927Y43004D01*
X239657Y42776D01*
X241400Y42700D01*
X243143Y42776D01*
X244873Y43004D01*
X246576Y43381D01*
X248240Y43906D01*
X249852Y44574D01*
X251400Y45379D01*
X252872Y46317D01*
X254256Y47379D01*
X255542Y48558D01*
X256721Y49844D01*
X257783Y51228D01*
X258721Y52700D01*
X259526Y54248D01*
X260194Y55860D01*
X260719Y57524D01*
X261096Y59227D01*
X261324Y60957D01*
X261400Y62700D01*
X302200Y62900D02*
X302124Y64643D01*
X301896Y66373D01*
X301519Y68076D01*
X300994Y69740D01*
X300326Y71352D01*
X299521Y72900D01*
X298583Y74372D01*
X297521Y75756D01*
X296342Y77042D01*
X295056Y78221D01*
X293672Y79283D01*
X292200Y80221D01*
X290652Y81026D01*
X289040Y81694D01*
X287376Y82219D01*
X285673Y82596D01*
X283943Y82824D01*
X282200Y82900D01*
X280457Y82824D01*
X278727Y82596D01*
X277024Y82219D01*
X275360Y81694D01*
X273748Y81026D01*
X272200Y80221D01*
X270728Y79283D01*
X269344Y78221D01*
X268058Y77042D01*
X266879Y75756D01*
X265817Y74372D01*
X264879Y72900D01*
X264074Y71352D01*
X263406Y69740D01*
X262881Y68076D01*
X262504Y66373D01*
X262276Y64643D01*
X262200Y62900D01*
X262276Y61157D01*
X262504Y59427D01*
X262881Y57724D01*
X263406Y56060D01*
X264074Y54448D01*
X264879Y52900D01*
X265817Y51428D01*
X266879Y50044D01*
X268058Y48758D01*
X269344Y47579D01*
X270728Y46517D01*
X272200Y45579D01*
X273748Y44774D01*
X275360Y44106D01*
X277024Y43581D01*
X278727Y43204D01*
X280457Y42976D01*
X282200Y42900D01*
X283943Y42976D01*
X285673Y43204D01*
X287376Y43581D01*
X289040Y44106D01*
X290652Y44774D01*
X292200Y45579D01*
X293672Y46517D01*
X295056Y47579D01*
X296342Y48758D01*
X297521Y50044D01*
X298583Y51428D01*
X299521Y52900D01*
X300326Y54448D01*
X300994Y56060D01*
X301519Y57724D01*
X301896Y59427D01*
X302124Y61157D01*
X302200Y62900D01*
X37800Y62800D02*
X37724Y64543D01*
X37496Y66273D01*
X37119Y67976D01*
X36594Y69640D01*
X35926Y71252D01*
X35121Y72800D01*
X34183Y74272D01*
X33121Y75656D01*
X31942Y76942D01*
X30656Y78121D01*
X29272Y79183D01*
X27800Y80121D01*
X26252Y80926D01*
X24640Y81594D01*
X22976Y82119D01*
X21273Y82496D01*
X19543Y82724D01*
X17800Y82800D01*
X16057Y82724D01*
X14327Y82496D01*
X12624Y82119D01*
X10960Y81594D01*
X9348Y80926D01*
X7800Y80121D01*
X6328Y79183D01*
X4944Y78121D01*
X3658Y76942D01*
X2479Y75656D01*
X1417Y74272D01*
X479Y72800D01*
X-326Y71252D01*
X-994Y69640D01*
X-1519Y67976D01*
X-1896Y66273D01*
X-2124Y64543D01*
X-2200Y62800D01*
X-2124Y61057D01*
X-1896Y59327D01*
X-1519Y57624D01*
X-994Y55960D01*
X-326Y54348D01*
X479Y52800D01*
X1417Y51328D01*
X2479Y49944D01*
X3658Y48658D01*
X4944Y47479D01*
X6328Y46417D01*
X7800Y45479D01*
X9348Y44674D01*
X10960Y44006D01*
X12624Y43481D01*
X14327Y43104D01*
X16057Y42876D01*
X17800Y42800D01*
X19543Y42876D01*
X21273Y43104D01*
X22976Y43481D01*
X24640Y44006D01*
X26252Y44674D01*
X27800Y45479D01*
X29272Y46417D01*
X30656Y47479D01*
X31942Y48658D01*
X33121Y49944D01*
X34183Y51328D01*
X35121Y52800D01*
X35926Y54348D01*
X36594Y55960D01*
X37119Y57624D01*
X37496Y59327D01*
X37724Y61057D01*
X37800Y62800D01*
X493200Y62900D02*
X493124Y64643D01*
X492896Y66373D01*
X492519Y68076D01*
X491994Y69740D01*
X491326Y71352D01*
X490521Y72900D01*
X489583Y74372D01*
X488521Y75756D01*
X487342Y77042D01*
X486056Y78221D01*
X484672Y79283D01*
X483200Y80221D01*
X481652Y81026D01*
X480040Y81694D01*
X478376Y82219D01*
X476673Y82596D01*
X474943Y82824D01*
X473200Y82900D01*
X471457Y82824D01*
X469727Y82596D01*
X468024Y82219D01*
X466360Y81694D01*
X464748Y81026D01*
X463200Y80221D01*
X461728Y79283D01*
X460344Y78221D01*
X459058Y77042D01*
X457879Y75756D01*
X456817Y74372D01*
X455879Y72900D01*
X455074Y71352D01*
X454406Y69740D01*
X453881Y68076D01*
X453504Y66373D01*
X453276Y64643D01*
X453200Y62900D01*
X453276Y61157D01*
X453504Y59427D01*
X453881Y57724D01*
X454406Y56060D01*
X455074Y54448D01*
X455879Y52900D01*
X456817Y51428D01*
X457879Y50044D01*
X459058Y48758D01*
X460344Y47579D01*
X461728Y46517D01*
X463200Y45579D01*
X464748Y44774D01*
X466360Y44106D01*
X468024Y43581D01*
X469727Y43204D01*
X471457Y42976D01*
X473200Y42900D01*
X474943Y42976D01*
X476673Y43204D01*
X478376Y43581D01*
X480040Y44106D01*
X481652Y44774D01*
X483200Y45579D01*
X484672Y46517D01*
X486056Y47579D01*
X487342Y48758D01*
X488521Y50044D01*
X489583Y51428D01*
X490521Y52900D01*
X491326Y54448D01*
X491994Y56060D01*
X492519Y57724D01*
X492896Y59427D01*
X493124Y61157D01*
X493200Y62900D01*
X37900Y355200D02*
X37824Y356943D01*
X37596Y358673D01*
X37219Y360376D01*
X36694Y362040D01*
X36026Y363652D01*
X35221Y365200D01*
X34283Y366672D01*
X33221Y368056D01*
X32042Y369342D01*
X30756Y370521D01*
X29372Y371583D01*
X27900Y372521D01*
X26352Y373326D01*
X24740Y373994D01*
X23076Y374519D01*
X21373Y374896D01*
X19643Y375124D01*
X17900Y375200D01*
X16157Y375124D01*
X14427Y374896D01*
X12724Y374519D01*
X11060Y373994D01*
X9448Y373326D01*
X7900Y372521D01*
X6428Y371583D01*
X5044Y370521D01*
X3758Y369342D01*
X2579Y368056D01*
X1517Y366672D01*
X579Y365200D01*
X-226Y363652D01*
X-894Y362040D01*
X-1419Y360376D01*
X-1796Y358673D01*
X-2024Y356943D01*
X-2100Y355200D01*
X-2024Y353457D01*
X-1796Y351727D01*
X-1419Y350024D01*
X-894Y348360D01*
X-226Y346748D01*
X579Y345200D01*
X1517Y343728D01*
X2579Y342344D01*
X3758Y341058D01*
X5044Y339879D01*
X6428Y338817D01*
X7900Y337879D01*
X9448Y337074D01*
X11060Y336406D01*
X12724Y335881D01*
X14427Y335504D01*
X16157Y335276D01*
X17900Y335200D01*
X19643Y335276D01*
X21373Y335504D01*
X23076Y335881D01*
X24740Y336406D01*
X26352Y337074D01*
X27900Y337879D01*
X29372Y338817D01*
X30756Y339879D01*
X32042Y341058D01*
X33221Y342344D01*
X34283Y343728D01*
X35221Y345200D01*
X36026Y346748D01*
X36694Y348360D01*
X37219Y350024D01*
X37596Y351727D01*
X37824Y353457D01*
X37900Y355200D01*
X37900Y355200D01*
X261400Y355200D02*
X261324Y356943D01*
X261096Y358673D01*
X260719Y360376D01*
X260194Y362040D01*
X259526Y363652D01*
X258721Y365200D01*
X257783Y366672D01*
X256721Y368056D01*
X255542Y369342D01*
X254256Y370521D01*
X252872Y371583D01*
X251400Y372521D01*
X249852Y373326D01*
X248240Y373994D01*
X246576Y374519D01*
X244873Y374896D01*
X243143Y375124D01*
X241400Y375200D01*
X239657Y375124D01*
X237927Y374896D01*
X236224Y374519D01*
X234560Y373994D01*
X232948Y373326D01*
X231400Y372521D01*
X229928Y371583D01*
X228544Y370521D01*
X227258Y369342D01*
X226079Y368056D01*
X225017Y366672D01*
X224079Y365200D01*
X223274Y363652D01*
X222606Y362040D01*
X222081Y360376D01*
X221704Y358673D01*
X221476Y356943D01*
X221400Y355200D01*
X221476Y353457D01*
X221704Y351727D01*
X222081Y350024D01*
X222606Y348360D01*
X223274Y346748D01*
X224079Y345200D01*
X225017Y343728D01*
X226079Y342344D01*
X227258Y341058D01*
X228544Y339879D01*
X229928Y338817D01*
X231400Y337879D01*
X232948Y337074D01*
X234560Y336406D01*
X236224Y335881D01*
X237927Y335504D01*
X239657Y335276D01*
X241400Y335200D01*
X243143Y335276D01*
X244873Y335504D01*
X246576Y335881D01*
X248240Y336406D01*
X249852Y337074D01*
X251400Y337879D01*
X252872Y338817D01*
X254256Y339879D01*
X255542Y341058D01*
X256721Y342344D01*
X257783Y343728D01*
X258721Y345200D01*
X259526Y346748D01*
X260194Y348360D01*
X260719Y350024D01*
X261096Y351727D01*
X261324Y353457D01*
X261400Y355200D01*
X261400Y355200D01*
X302200Y355200D02*
X302124Y356943D01*
X301896Y358673D01*
X301519Y360376D01*
X300994Y362040D01*
X300326Y363652D01*
X299521Y365200D01*
X298583Y366672D01*
X297521Y368056D01*
X296342Y369342D01*
X295056Y370521D01*
X293672Y371583D01*
X292200Y372521D01*
X290652Y373326D01*
X289040Y373994D01*
X287376Y374519D01*
X285673Y374896D01*
X283943Y375124D01*
X282200Y375200D01*
X280457Y375124D01*
X278727Y374896D01*
X277024Y374519D01*
X275360Y373994D01*
X273748Y373326D01*
X272200Y372521D01*
X270728Y371583D01*
X269344Y370521D01*
X268058Y369342D01*
X266879Y368056D01*
X265817Y366672D01*
X264879Y365200D01*
X264074Y363652D01*
X263406Y362040D01*
X262881Y360376D01*
X262504Y358673D01*
X262276Y356943D01*
X262200Y355200D01*
X262276Y353457D01*
X262504Y351727D01*
X262881Y350024D01*
X263406Y348360D01*
X264074Y346748D01*
X264879Y345200D01*
X265817Y343728D01*
X266879Y342344D01*
X268058Y341058D01*
X269344Y339879D01*
X270728Y338817D01*
X272200Y337879D01*
X273748Y337074D01*
X275360Y336406D01*
X277024Y335881D01*
X278727Y335504D01*
X280457Y335276D01*
X282200Y335200D01*
X283943Y335276D01*
X285673Y335504D01*
X287376Y335881D01*
X289040Y336406D01*
X290652Y337074D01*
X292200Y337879D01*
X293672Y338817D01*
X295056Y339879D01*
X296342Y341058D01*
X297521Y342344D01*
X298583Y343728D01*
X299521Y345200D01*
X300326Y346748D01*
X300994Y348360D01*
X301519Y350024D01*
X301896Y351727D01*
X302124Y353457D01*
X302200Y355200D01*
X302200Y355200D01*
X493300Y355200D02*
X493224Y356943D01*
X492996Y358673D01*
X492619Y360376D01*
X492094Y362040D01*
X491426Y363652D01*
X490621Y365200D01*
X489683Y366672D01*
X488621Y368056D01*
X487442Y369342D01*
X486156Y370521D01*
X484772Y371583D01*
X483300Y372521D01*
X481752Y373326D01*
X480140Y373994D01*
X478476Y374519D01*
X476773Y374896D01*
X475043Y375124D01*
X473300Y375200D01*
X471557Y375124D01*
X469827Y374896D01*
X468124Y374519D01*
X466460Y373994D01*
X464848Y373326D01*
X463300Y372521D01*
X461828Y371583D01*
X460444Y370521D01*
X459158Y369342D01*
X457979Y368056D01*
X456917Y366672D01*
X455979Y365200D01*
X455174Y363652D01*
X454506Y362040D01*
X453981Y360376D01*
X453604Y358673D01*
X453376Y356943D01*
X453300Y355200D01*
X453376Y353457D01*
X453604Y351727D01*
X453981Y350024D01*
X454506Y348360D01*
X455174Y346748D01*
X455979Y345200D01*
X456917Y343728D01*
X457979Y342344D01*
X459158Y341058D01*
X460444Y339879D01*
X461828Y338817D01*
X463300Y337879D01*
X464848Y337074D01*
X466460Y336406D01*
X468124Y335881D01*
X469827Y335504D01*
X471557Y335276D01*
X473300Y335200D01*
X475043Y335276D01*
X476773Y335504D01*
X478476Y335881D01*
X480140Y336406D01*
X481752Y337074D01*
X483300Y337879D01*
X484772Y338817D01*
X486156Y339879D01*
X487442Y341058D01*
X488621Y342344D01*
X489683Y343728D01*
X490621Y345200D01*
X491426Y346748D01*
X492094Y348360D01*
X492619Y350024D01*
X492996Y351727D01*
X493224Y353457D01*
X493300Y355200D01*
X493300Y355200D01*
X66200Y279900D02*
X66200Y79900D01*
X156200Y79900D01*
X156200Y279900D01*
X65494Y254900D02*
G75*
D01*
G02X65494Y254900I3937J0*
G01*
X109231Y279900D02*
X109239Y279728D01*
X109261Y279558D01*
X109299Y279391D01*
X109350Y279227D01*
X109416Y279068D01*
X109495Y278916D01*
X109587Y278771D01*
X109692Y278635D01*
X109808Y278508D01*
X109935Y278392D01*
X110071Y278287D01*
X110216Y278195D01*
X110368Y278116D01*
X110527Y278050D01*
X110691Y277999D01*
X110858Y277961D01*
X111028Y277939D01*
X111200Y277931D01*
X111372Y277939D01*
X111542Y277961D01*
X111709Y277999D01*
X111873Y278050D01*
X112032Y278116D01*
X112184Y278195D01*
X112329Y278287D01*
X112465Y278392D01*
X112592Y278508D01*
X112708Y278635D01*
X112813Y278771D01*
X112905Y278916D01*
X112984Y279068D01*
X113050Y279227D01*
X113101Y279391D01*
X113139Y279558D01*
X113161Y279728D01*
X113169Y279900D01*
X156200Y279900D02*
X113169Y279900D01*
X109231Y279900D02*
X66200Y279900D01*
X94533Y216833D02*
X94533Y230167D01*
X102867Y216833D02*
X102867Y230167D01*
X93700Y231000D02*
X94533Y230167D01*
X98700Y235167D02*
X93700Y234333D01*
X93700Y231000D01*
X103700Y231000D02*
X102867Y230167D01*
X103700Y234333D02*
X103700Y231000D01*
X98700Y235167D02*
X103700Y234333D01*
X93700Y216000D02*
X94533Y216833D01*
X98700Y211833D02*
X93700Y212667D01*
X93700Y216000D01*
X103700Y212667D02*
X103700Y216000D01*
X102867Y216833D01*
X98700Y211833D02*
X103700Y212667D01*
X122633Y216933D02*
X122633Y230267D01*
X130967Y216933D02*
X130967Y230267D01*
X121800Y231100D02*
X122633Y230267D01*
X126800Y235267D02*
X121800Y234433D01*
X121800Y231100D01*
X131800Y231100D02*
X130967Y230267D01*
X131800Y234433D02*
X131800Y231100D01*
X126800Y235267D02*
X131800Y234433D01*
X121800Y216100D02*
X122633Y216933D01*
X126800Y211933D02*
X121800Y212767D01*
X121800Y216100D01*
X131800Y212767D02*
X131800Y216100D01*
X130967Y216933D01*
X126800Y211933D02*
X131800Y212767D01*
X325500Y280600D02*
X325500Y80600D01*
X415500Y80600D01*
X415500Y280600D01*
X324794Y255600D02*
G75*
D01*
G02X324794Y255600I3937J0*
G01*
X368531Y280600D02*
X368539Y280428D01*
X368561Y280258D01*
X368599Y280091D01*
X368650Y279927D01*
X368716Y279768D01*
X368795Y279616D01*
X368887Y279471D01*
X368992Y279335D01*
X369108Y279208D01*
X369235Y279092D01*
X369371Y278987D01*
X369516Y278895D01*
X369668Y278816D01*
X369827Y278750D01*
X369991Y278699D01*
X370158Y278661D01*
X370328Y278639D01*
X370500Y278631D01*
X370672Y278639D01*
X370842Y278661D01*
X371009Y278699D01*
X371173Y278750D01*
X371332Y278816D01*
X371484Y278895D01*
X371629Y278987D01*
X371765Y279092D01*
X371892Y279208D01*
X372008Y279335D01*
X372113Y279471D01*
X372205Y279616D01*
X372284Y279768D01*
X372350Y279927D01*
X372401Y280091D01*
X372439Y280258D01*
X372461Y280428D01*
X372469Y280600D01*
X415500Y280600D02*
X372469Y280600D01*
X368531Y280600D02*
X325500Y280600D01*
X355433Y217733D02*
X355433Y231067D01*
X363767Y217733D02*
X363767Y231067D01*
X354600Y231900D02*
X355433Y231067D01*
X359600Y236067D02*
X354600Y235233D01*
X354600Y231900D01*
X364600Y231900D02*
X363767Y231067D01*
X364600Y235233D02*
X364600Y231900D01*
X359600Y236067D02*
X364600Y235233D01*
X354600Y216900D02*
X355433Y217733D01*
X359600Y212733D02*
X354600Y213567D01*
X354600Y216900D01*
X364600Y213567D02*
X364600Y216900D01*
X363767Y217733D01*
X359600Y212733D02*
X364600Y213567D01*
X380433Y217933D02*
X380433Y231267D01*
X388767Y217933D02*
X388767Y231267D01*
X379600Y232100D02*
X380433Y231267D01*
X384600Y236267D02*
X379600Y235433D01*
X379600Y232100D01*
X389600Y232100D02*
X388767Y231267D01*
X389600Y235433D02*
X389600Y232100D01*
X384600Y236267D02*
X389600Y235433D01*
X379600Y217100D02*
X380433Y217933D01*
X384600Y212933D02*
X379600Y213767D01*
X379600Y217100D01*
X389600Y213767D02*
X389600Y217100D01*
X388767Y217933D01*
X384600Y212933D02*
X389600Y213767D01*
X211500Y119900D02*
X211500Y99900D01*
X201500Y107400D02*
X201500Y99900D01*
X211500Y99900D01*
X201500Y119900D02*
X201500Y110733D01*
X201500Y109067D02*
X204833Y109067D01*
X202333Y108233D02*
X201500Y109067D01*
X201500Y119900D02*
X211500Y119900D01*
X461500Y120600D02*
X461500Y100600D01*
X451500Y108100D02*
X451500Y100600D01*
X461500Y100600D01*
X451500Y120600D02*
X451500Y111433D01*
X451500Y109767D02*
X454833Y109767D01*
X452333Y108933D02*
X451500Y109767D01*
X451500Y120600D02*
X461500Y120600D01*
X178033Y152733D02*
X178033Y166067D01*
X186367Y152733D02*
X186367Y166067D01*
X177200Y166900D02*
X178033Y166067D01*
X182200Y171067D02*
X177200Y170233D01*
X177200Y166900D01*
X187200Y166900D02*
X186367Y166067D01*
X187200Y170233D02*
X187200Y166900D01*
X182200Y171067D02*
X187200Y170233D01*
X177200Y151900D02*
X178033Y152733D01*
X182200Y147733D02*
X177200Y148567D01*
X177200Y151900D01*
X187200Y148567D02*
X187200Y151900D01*
X186367Y152733D01*
X182200Y147733D02*
X187200Y148567D01*
X177400Y223000D02*
X187400Y223000D01*
X177400Y253000D02*
X187400Y253000D01*
X177400Y253000D02*
X177400Y233000D01*
X177400Y230500D02*
X177400Y223000D01*
X177400Y232167D02*
X180733Y232167D01*
X178233Y231333D02*
X177400Y232167D01*
X187400Y253000D02*
X187400Y223000D01*
X273373Y316000D02*
X313373Y316000D01*
X273373Y306000D02*
X303373Y306000D01*
X313373Y306000D02*
X313373Y316000D01*
X305873Y306000D02*
X313373Y306000D01*
X304206Y306000D02*
X304206Y309333D01*
X305040Y306833D02*
X304206Y306000D01*
X273373Y306000D02*
X273373Y316000D01*
X470700Y305900D02*
X450700Y305900D01*
X458200Y315900D02*
X450700Y315900D01*
X450700Y305900D01*
X470700Y315900D02*
X461533Y315900D01*
X459867Y315900D02*
X459867Y312567D01*
X459033Y315067D02*
X459867Y315900D01*
X470700Y315900D02*
X470700Y305900D01*
X50800Y309800D02*
X30800Y309800D01*
X38300Y319800D02*
X30800Y319800D01*
X30800Y309800D01*
X50800Y319800D02*
X41633Y319800D01*
X39967Y319800D02*
X39967Y316467D01*
X39133Y318967D02*
X39967Y319800D01*
X50800Y319800D02*
X50800Y309800D01*
X184200Y309800D02*
X164200Y309800D01*
X171700Y319800D02*
X164200Y319800D01*
X164200Y309800D01*
X184200Y319800D02*
X175033Y319800D01*
X173367Y319800D02*
X173367Y316467D01*
X172533Y318967D02*
X173367Y319800D01*
X184200Y319800D02*
X184200Y309800D01*
X248900Y320000D02*
X248900Y300000D01*
X238900Y307500D02*
X238900Y300000D01*
X248900Y300000D01*
X238900Y320000D02*
X238900Y310833D01*
X238900Y309167D02*
X242233Y309167D01*
X239733Y308333D02*
X238900Y309167D01*
X238900Y320000D02*
X248900Y320000D01*
G54D12*
X114629Y184451D02*
X110057Y184451D01*
X108914Y183313D01*
X108914Y182176D01*
X110057Y181038D01*
X114629Y181038D01*
X113486Y178762D02*
X114629Y177624D01*
X108914Y177624D01*
X108914Y179331D02*
X108914Y175918D01*
X373929Y185151D02*
X369357Y185151D01*
X368214Y184013D01*
X368214Y182876D01*
X369357Y181738D01*
X373929Y181738D01*
X372786Y180031D02*
X373929Y178893D01*
X373929Y177756D01*
X372786Y176618D01*
X372214Y176618D01*
X368214Y180031D01*
X368214Y176618D01*
X368786Y176618D01*
G54D13*
X95914Y228331D02*
X101629Y228331D01*
X101629Y226056D01*
X100486Y224918D01*
X99914Y224918D01*
X98771Y226056D01*
X98771Y228331D01*
X98771Y227762D02*
X95914Y224918D01*
X101057Y222642D02*
X101629Y222073D01*
X101629Y220936D01*
X100486Y219798D01*
X99343Y219798D01*
X98771Y220367D01*
X98200Y219798D01*
X97057Y219798D01*
X95914Y220936D01*
X95914Y222073D01*
X96486Y222642D01*
X98771Y222073D02*
X98771Y220367D01*
X123914Y227831D02*
X129629Y227831D01*
X129629Y225556D01*
X128486Y224418D01*
X127914Y224418D01*
X126771Y225556D01*
X126771Y227831D01*
X126771Y227262D02*
X123914Y224418D01*
X128486Y222142D02*
X129629Y221004D01*
X123914Y221004D01*
X123914Y222711D02*
X123914Y219298D01*
X356414Y228931D02*
X362129Y228931D01*
X362129Y226656D01*
X360986Y225518D01*
X360414Y225518D01*
X359271Y226656D01*
X359271Y228931D01*
X359271Y228362D02*
X356414Y225518D01*
X362129Y220967D02*
X362129Y222673D01*
X360986Y223811D01*
X358700Y223811D01*
X357557Y223811D01*
X356414Y222673D01*
X356414Y221536D01*
X357557Y220398D01*
X358700Y220398D01*
X359843Y221536D01*
X359843Y222673D01*
X358700Y223811D01*
X381414Y230031D02*
X387129Y230031D01*
X387129Y227756D01*
X385986Y226618D01*
X385414Y226618D01*
X384271Y227756D01*
X384271Y230031D01*
X384271Y229462D02*
X381414Y226618D01*
X387129Y221498D02*
X387129Y224911D01*
X384843Y224911D01*
X384843Y222636D01*
X383700Y221498D01*
X382557Y221498D01*
X381414Y222636D01*
X381414Y224911D01*
X179214Y164031D02*
X184929Y164031D01*
X184929Y161756D01*
X183786Y160618D01*
X183214Y160618D01*
X182071Y161756D01*
X182071Y164031D01*
X182071Y163462D02*
X179214Y160618D01*
X183786Y158911D02*
X184929Y157773D01*
X184929Y156636D01*
X183786Y155498D01*
X183214Y155498D01*
X179214Y158911D01*
X179214Y155498D01*
X179786Y155498D01*
X209414Y264931D02*
X209414Y262656D01*
X210557Y261518D01*
X213986Y261518D01*
X215129Y262656D01*
X215129Y264931D01*
X215129Y264362D02*
X209414Y264362D01*
X213986Y259242D02*
X215129Y258104D01*
X209414Y258104D01*
X209414Y259811D02*
X209414Y256398D01*
X281769Y298357D02*
X282907Y297214D01*
X284044Y297214D01*
X285182Y298357D01*
X285182Y302929D01*
X288596Y297214D02*
X288596Y300071D01*
X290302Y301786D01*
X290302Y302929D01*
X286889Y302929D01*
X286889Y301786D01*
X448169Y297157D02*
X449307Y296014D01*
X450444Y296014D01*
X451582Y297157D01*
X451582Y301729D01*
X453858Y300586D02*
X454996Y301729D01*
X454996Y296014D01*
X453289Y296014D02*
X456702Y296014D01*
X458409Y300586D02*
X459547Y301729D01*
X460684Y301729D01*
X461822Y300586D01*
X461822Y297157D01*
X460684Y296014D01*
X459547Y296014D01*
X458409Y297157D01*
X458409Y300586D01*
X461822Y300586D02*
X458409Y297157D01*
X42269Y302557D02*
X43407Y301414D01*
X44544Y301414D01*
X45682Y302557D01*
X45682Y307129D01*
X50802Y303700D02*
X47389Y303700D01*
X50233Y307129D01*
X50233Y301414D01*
X49664Y301414D02*
X50802Y301414D01*
X176269Y303457D02*
X177407Y302314D01*
X178544Y302314D01*
X179682Y303457D01*
X179682Y308029D01*
X184802Y308029D02*
X181389Y308029D01*
X181389Y305743D01*
X183664Y305743D01*
X184802Y304600D01*
X184802Y303457D01*
X183664Y302314D01*
X181389Y302314D01*
X256643Y304329D02*
X257786Y305467D01*
X257786Y306604D01*
X256643Y307742D01*
X252071Y307742D01*
X252643Y310018D02*
X252071Y310587D01*
X252071Y311724D01*
X253214Y312862D01*
X254357Y312862D01*
X254929Y312293D01*
X255500Y312862D01*
X256643Y312862D01*
X257786Y311724D01*
X257786Y310587D01*
X257214Y310018D01*
X254929Y310587D02*
X254929Y312293D01*
G54D14*
X211900Y274858D02*
X211900Y286276D01*
X211900Y254386D02*
X211900Y242969D01*
X216624Y274071D02*
X207176Y274071D01*
X207176Y255173D01*
X216624Y255173D01*
X216624Y274071D01*
G54D15*
G36*
X207228Y268165D02*
X207228Y271315D01*
X216672Y271315D01*
X216672Y268165D01*
X207228Y268165D01*
G37*
G54D16*
X-2600Y41800D02*
X-2600Y75220D01*
X-2600Y41800D02*
X47070Y41800D01*
X494100Y41800D02*
X444430Y41800D01*
X494100Y41800D02*
X494100Y75220D01*
X494100Y376000D02*
X494100Y342580D01*
X494100Y376000D02*
X444430Y376000D01*
X-2600Y376000D02*
X47070Y376000D01*
X-2600Y376000D02*
X-2600Y342580D01*
X-22285Y41800D02*
X-61655Y41800D01*
X-41970Y22115D02*
X-41970Y61485D01*
X-56734Y41800D02*
G75*
D01*
G02X-56734Y41800I14764J0*
G01*
X513785Y41800D02*
X553155Y41800D01*
X533470Y22115D02*
X533470Y61485D01*
X518706Y41800D02*
G75*
D01*
G02X518706Y41800I14764J0*
G01*
X528549Y41800D02*
G75*
D01*
G02X528549Y41800I4921J0*
G01*
X-22285Y376000D02*
X-61655Y376000D01*
X-41970Y356315D02*
X-41970Y395685D01*
X-56734Y376000D02*
G75*
D01*
G02X-56734Y376000I14764J0*
G01*
X-51813Y376000D02*
G75*
D01*
G02X-51813Y376000I9843J0*
G01*
X-46891Y376000D02*
G75*
D01*
G02X-46891Y376000I4921J0*
G01*

M02*
