M48
INCH,TZ
VER,1
FMAT,2
DETECT,ON
ATC,ON
T1C0.03600
%
T1
X2.41400Y0.62700
X2.82200Y0.62900
X0.17800Y0.62800
X4.73200Y0.62900
X0.17900Y3.55200
X2.41400
X2.82200
X4.73300
X1.52450Y2.14900
X0.69950Y1.04900
X1.52450
X0.69950Y1.14900
X1.52450
X0.69950Y1.24900
X1.52450
X0.69950Y1.34900
X1.52450
X0.69950Y1.44900
X1.52450
X0.69950Y1.54900
X1.52450
X0.69950Y1.64900
X1.52450
X0.69950Y1.74900
X1.52450
X0.69950Y1.84900
X1.52450
X0.69950Y1.94900
X1.52450
X0.69950Y2.04900
X1.52450
X0.69950Y2.14900
Y2.24900
Y2.34900
Y2.44900
Y2.54900
X0.98700Y2.38500
Y2.08500
X1.26800Y2.38600
Y2.08600
X3.29250Y1.05600
X4.11750
X3.29250Y1.15600
X4.11750
X3.29250Y1.25600
X4.11750
X3.29250Y1.35600
X4.11750
X3.29250Y1.45600
X4.11750
X3.29250Y1.55600
X4.11750
X3.29250Y1.65600
X4.11750
X3.29250Y1.75600
X4.11750
X3.29250Y1.85600
X4.11750
X3.29250Y1.95600
X4.11750
X3.29250Y2.05600
X4.11750
X3.29250Y2.15600
X4.11750
X3.29250Y2.25600
Y2.35600
Y2.45600
Y2.55600
X3.59600Y2.39400
Y2.09400
X3.84600Y2.39600
Y2.09600
X2.06500Y1.04900
Y1.14900
X4.56500Y1.15600
Y1.05600
X1.82200Y1.44400
Y1.74400
X1.82400Y2.28000
Y2.38000
Y2.48000
X2.11900Y2.38244
Y2.91000
X2.88373Y3.11000
X2.98373
X3.08373
X2.78373
X4.65700Y3.10900
X4.55700
X0.35800Y3.14800
X0.45800
X1.69200
X1.79200
X2.43900Y3.05000
Y3.15000
M30
