G04 Generated by Ultiboard 13.0 *
%FSLAX25Y25*%
%MOIN*%

%ADD10C,0.00001*%
%ADD11C,0.00500*%


G04 ColorRGB FF14FF for the following layer *
%LNSilkscreen Bottom*%
%LPD*%
G54D10*
G54D11*
X-2600Y41800D02*
X-2600Y75220D01*
X-2600Y41800D02*
X47070Y41800D01*
X494100Y41800D02*
X444430Y41800D01*
X494100Y41800D02*
X494100Y75220D01*
X494100Y376000D02*
X494100Y342580D01*
X494100Y376000D02*
X444430Y376000D01*
X-2600Y376000D02*
X47070Y376000D01*
X-2600Y376000D02*
X-2600Y342580D01*
X-22285Y41800D02*
X-61655Y41800D01*
X-41970Y22115D02*
X-41970Y61485D01*
X-56734Y41800D02*
G75*
D01*
G02X-56734Y41800I14764J0*
G01*
X513785Y41800D02*
X553155Y41800D01*
X533470Y22115D02*
X533470Y61485D01*
X518706Y41800D02*
G75*
D01*
G02X518706Y41800I14764J0*
G01*
X528549Y41800D02*
G75*
D01*
G02X528549Y41800I4921J0*
G01*
X-22285Y376000D02*
X-61655Y376000D01*
X-41970Y356315D02*
X-41970Y395685D01*
X-56734Y376000D02*
G75*
D01*
G02X-56734Y376000I14764J0*
G01*
X-51813Y376000D02*
G75*
D01*
G02X-51813Y376000I9843J0*
G01*
X-46891Y376000D02*
G75*
D01*
G02X-46891Y376000I4921J0*
G01*

M02*
