G04 Generated by Ultiboard 13.0 *
%FSLAX25Y25*%
%MOIN*%

%ADD10C,0.00001*%
%ADD11C,0.00367*%
%ADD12C,0.00533*%
%ADD13C,0.00500*%
%ADD14C,0.25000*%
%ADD15C,0.08000*%
%ADD16R,0.04083X0.04083*%
%ADD17C,0.03917*%
%ADD18R,0.08000X0.08000*%


G04 ColorRGB 00FF00 for the following layer *
%LNCopper Top*%
%LPD*%
G54D10*
G54D11*
X443422Y326594D02*
X444206Y326594D01*
X444206Y325413D01*
X443422Y324625D01*
X442638Y324625D01*
X441854Y325413D01*
X441854Y327775D01*
X442638Y328562D01*
X444206Y328562D01*
X445382Y324625D02*
X445382Y328562D01*
X447733Y324625D01*
X447733Y328562D01*
X448909Y324625D02*
X450477Y324625D01*
X451261Y325413D01*
X451261Y327775D01*
X450477Y328562D01*
X448909Y328562D01*
X449301Y328562D02*
X449301Y324625D01*
X468899Y328562D02*
X466547Y328562D01*
X466547Y326987D01*
X468115Y326987D01*
X468899Y326200D01*
X468899Y325413D01*
X468115Y324625D01*
X466547Y324625D01*
X473602Y328562D02*
X474778Y324625D01*
X475954Y328562D01*
X24822Y328594D02*
X25606Y328594D01*
X25606Y327413D01*
X24822Y326625D01*
X24038Y326625D01*
X23254Y327413D01*
X23254Y329775D01*
X24038Y330562D01*
X25606Y330562D01*
X26782Y326625D02*
X26782Y330562D01*
X29133Y326625D01*
X29133Y330562D01*
X30309Y326625D02*
X31877Y326625D01*
X32661Y327413D01*
X32661Y329775D01*
X31877Y330562D01*
X30309Y330562D01*
X30701Y330562D02*
X30701Y326625D01*
X50299Y330562D02*
X47947Y330562D01*
X47947Y328987D01*
X49515Y328987D01*
X50299Y328200D01*
X50299Y327413D01*
X49515Y326625D01*
X47947Y326625D01*
X55002Y330562D02*
X56178Y326625D01*
X57354Y330562D01*
X159950Y330194D02*
X160733Y330194D01*
X160733Y329013D01*
X159950Y328225D01*
X159166Y328225D01*
X158382Y329013D01*
X158382Y331375D01*
X159166Y332162D01*
X160733Y332162D01*
X161909Y328225D02*
X161909Y332162D01*
X164261Y328225D01*
X164261Y332162D01*
X165437Y328225D02*
X167005Y328225D01*
X167789Y329013D01*
X167789Y331375D01*
X167005Y332162D01*
X165437Y332162D01*
X165829Y332162D02*
X165829Y328225D01*
X176411Y331375D02*
X177195Y332162D01*
X177195Y328225D01*
X176020Y328225D02*
X178371Y328225D01*
X179547Y331375D02*
X180331Y332162D01*
X181115Y332162D01*
X181899Y331375D01*
X181899Y330981D01*
X179547Y328225D01*
X181899Y328225D01*
X181899Y328619D01*
X183075Y332162D02*
X184250Y328225D01*
X185426Y332162D01*
G54D12*
X450627Y128214D02*
X451764Y128214D01*
X450627Y133929D02*
X451764Y133929D01*
X451196Y128214D02*
X451196Y133929D01*
X454609Y132786D02*
X455747Y133929D01*
X456884Y133929D01*
X458022Y132786D01*
X458022Y132214D01*
X454609Y128214D01*
X458022Y128214D01*
X458022Y128786D01*
X463142Y129357D02*
X462004Y128214D01*
X460867Y128214D01*
X459729Y129357D01*
X459729Y132786D01*
X460867Y133929D01*
X462004Y133929D01*
X463142Y132786D01*
X170242Y223533D02*
X164527Y223533D01*
X164527Y221826D02*
X164527Y225240D01*
X170242Y228084D02*
X170242Y229222D01*
X164527Y228084D02*
X164527Y229222D01*
X170242Y228653D02*
X164527Y228653D01*
X170242Y232066D02*
X164527Y232066D01*
X164527Y234342D01*
X165670Y235480D01*
X166242Y235480D01*
X167384Y234342D01*
X167384Y232066D01*
X165670Y237755D02*
X164527Y238893D01*
X170242Y238893D01*
X170242Y237186D02*
X170242Y240600D01*
X165670Y242306D02*
X164527Y243444D01*
X164527Y244582D01*
X165670Y245720D01*
X166242Y245720D01*
X170242Y242306D01*
X170242Y245720D01*
X169670Y245720D01*
X165670Y247426D02*
X164527Y248564D01*
X164527Y249702D01*
X165670Y250840D01*
X169099Y250840D01*
X170242Y249702D01*
X170242Y248564D01*
X169099Y247426D01*
X165670Y247426D01*
X165670Y250840D02*
X169099Y247426D01*
X433180Y97101D02*
X434318Y95958D01*
X435456Y95958D01*
X436594Y97101D01*
X433180Y100530D01*
X434318Y101673D01*
X435456Y101673D01*
X436594Y100530D01*
X438300Y95958D02*
X440576Y95958D01*
X441714Y97101D01*
X441714Y100530D01*
X440576Y101673D01*
X438300Y101673D01*
X438869Y101673D02*
X438869Y95958D01*
X443420Y95958D02*
X443420Y99387D01*
X444558Y101673D01*
X445696Y101673D01*
X446834Y99387D01*
X446834Y95958D01*
X443420Y97673D02*
X446834Y97673D01*
X434180Y121101D02*
X435318Y119958D01*
X436456Y119958D01*
X437594Y121101D01*
X434180Y124530D01*
X435318Y125673D01*
X436456Y125673D01*
X437594Y124530D01*
X442714Y121101D02*
X441576Y119958D01*
X440438Y119958D01*
X439300Y121101D01*
X439300Y124530D01*
X440438Y125673D01*
X441576Y125673D01*
X442714Y124530D01*
X444420Y125673D02*
X444420Y119958D01*
X447834Y119958D01*
X181669Y92957D02*
X182807Y91814D01*
X183944Y91814D01*
X185082Y92957D01*
X181669Y96386D01*
X182807Y97529D01*
X183944Y97529D01*
X185082Y96386D01*
X186789Y91814D02*
X189064Y91814D01*
X190202Y92957D01*
X190202Y96386D01*
X189064Y97529D01*
X186789Y97529D01*
X187358Y97529D02*
X187358Y91814D01*
X191909Y91814D02*
X191909Y95243D01*
X193047Y97529D01*
X194184Y97529D01*
X195322Y95243D01*
X195322Y91814D01*
X191909Y93529D02*
X195322Y93529D01*
X179969Y121457D02*
X181107Y120314D01*
X182244Y120314D01*
X183382Y121457D01*
X179969Y124886D01*
X181107Y126029D01*
X182244Y126029D01*
X183382Y124886D01*
X188502Y121457D02*
X187364Y120314D01*
X186227Y120314D01*
X185089Y121457D01*
X185089Y124886D01*
X186227Y126029D01*
X187364Y126029D01*
X188502Y124886D01*
X190209Y126029D02*
X190209Y120314D01*
X193622Y120314D01*
X199207Y127714D02*
X200344Y127714D01*
X199207Y133429D02*
X200344Y133429D01*
X199776Y127714D02*
X199776Y133429D01*
X203189Y132286D02*
X204327Y133429D01*
X205464Y133429D01*
X206602Y132286D01*
X206602Y131714D01*
X203189Y127714D01*
X206602Y127714D01*
X206602Y128286D01*
X211722Y128857D02*
X210584Y127714D01*
X209447Y127714D01*
X208309Y128857D01*
X208309Y132286D01*
X209447Y133429D01*
X210584Y133429D01*
X211722Y132286D01*
G54D13*
X-2600Y41800D02*
X-2600Y75220D01*
X-2600Y41800D02*
X47070Y41800D01*
X494100Y41800D02*
X444430Y41800D01*
X494100Y41800D02*
X494100Y75220D01*
X494100Y376000D02*
X494100Y342580D01*
X494100Y376000D02*
X444430Y376000D01*
X-2600Y376000D02*
X47070Y376000D01*
X-2600Y376000D02*
X-2600Y342580D01*
X-22285Y41800D02*
X-61655Y41800D01*
X-41970Y22115D02*
X-41970Y61485D01*
X-56734Y41800D02*
G75*
D01*
G02X-56734Y41800I14764J0*
G01*
X513785Y41800D02*
X553155Y41800D01*
X533470Y22115D02*
X533470Y61485D01*
X518706Y41800D02*
G75*
D01*
G02X518706Y41800I14764J0*
G01*
X528549Y41800D02*
G75*
D01*
G02X528549Y41800I4921J0*
G01*
X-22285Y376000D02*
X-61655Y376000D01*
X-41970Y356315D02*
X-41970Y395685D01*
X-56734Y376000D02*
G75*
D01*
G02X-56734Y376000I14764J0*
G01*
X-51813Y376000D02*
G75*
D01*
G02X-51813Y376000I9843J0*
G01*
X-46891Y376000D02*
G75*
D01*
G02X-46891Y376000I4921J0*
G01*
G54D14*
X241400Y62700D03*
X282200Y62900D03*
X17800Y62800D03*
X473200Y62900D03*
X17900Y355200D03*
X241400Y355200D03*
X282200Y355200D03*
X473300Y355200D03*
G54D15*
X152450Y214900D03*
X69950Y104900D03*
X152450Y104900D03*
X69950Y114900D03*
X152450Y114900D03*
X69950Y124900D03*
X152450Y124900D03*
X69950Y134900D03*
X152450Y134900D03*
X69950Y144900D03*
X152450Y144900D03*
X69950Y154900D03*
X152450Y154900D03*
X69950Y164900D03*
X152450Y164900D03*
X69950Y174900D03*
X152450Y174900D03*
X69950Y184900D03*
X152450Y184900D03*
X69950Y194900D03*
X152450Y194900D03*
X69950Y204900D03*
X152450Y204900D03*
X69950Y214900D03*
X69950Y224900D03*
X69950Y234900D03*
X69950Y244900D03*
X69950Y254900D03*
X98700Y238500D03*
X98700Y208500D03*
X126800Y238600D03*
X126800Y208600D03*
X329250Y105600D03*
X411750Y105600D03*
X329250Y115600D03*
X411750Y115600D03*
X329250Y125600D03*
X411750Y125600D03*
X329250Y135600D03*
X411750Y135600D03*
X329250Y145600D03*
X411750Y145600D03*
X329250Y155600D03*
X411750Y155600D03*
X329250Y165600D03*
X411750Y165600D03*
X329250Y175600D03*
X411750Y175600D03*
X329250Y185600D03*
X411750Y185600D03*
X329250Y195600D03*
X411750Y195600D03*
X329250Y205600D03*
X411750Y205600D03*
X329250Y215600D03*
X411750Y215600D03*
X329250Y225600D03*
X329250Y235600D03*
X329250Y245600D03*
X329250Y255600D03*
X359600Y239400D03*
X359600Y209400D03*
X384600Y239600D03*
X384600Y209600D03*
X206500Y114900D03*
X456500Y115600D03*
X182200Y144400D03*
X182200Y174400D03*
X182400Y238000D03*
X182400Y248000D03*
X211900Y238244D03*
X288373Y311000D03*
X298373Y311000D03*
X278373Y311000D03*
X465700Y310900D03*
X45800Y314800D03*
X179200Y314800D03*
X243900Y315000D03*
G54D16*
X206500Y104900D03*
X456500Y105600D03*
X182400Y228000D03*
X308373Y311000D03*
X455700Y310900D03*
X35800Y314800D03*
X169200Y314800D03*
X243900Y305000D03*
G54D17*
X204459Y102859D02*
X208541Y102859D01*
X208541Y106941D01*
X204459Y106941D01*
X204459Y102859D01*D02*
X454459Y103559D02*
X458541Y103559D01*
X458541Y107641D01*
X454459Y107641D01*
X454459Y103559D01*D02*
X180359Y225959D02*
X184441Y225959D01*
X184441Y230041D01*
X180359Y230041D01*
X180359Y225959D01*D02*
X306332Y308959D02*
X310414Y308959D01*
X310414Y313041D01*
X306332Y313041D01*
X306332Y308959D01*D02*
X453659Y308859D02*
X457741Y308859D01*
X457741Y312941D01*
X453659Y312941D01*
X453659Y308859D01*D02*
X33759Y312759D02*
X37841Y312759D01*
X37841Y316841D01*
X33759Y316841D01*
X33759Y312759D01*D02*
X167159Y312759D02*
X171241Y312759D01*
X171241Y316841D01*
X167159Y316841D01*
X167159Y312759D01*D02*
X241859Y302959D02*
X245941Y302959D01*
X245941Y307041D01*
X241859Y307041D01*
X241859Y302959D01*D02*
G54D18*
X211900Y291000D03*

M02*
