G04 Generated by Ultiboard 13.0 *
%FSLAX25Y25*%
%MOIN*%

%ADD11C,0.03600*%


G04 ColorRGB 000000 for the following layer *
%LNDrill-Copper Top-Copper Bottom*%
%LPD*%
G54D11*
X241400Y62700D03*
X282200Y62900D03*
X17800Y62800D03*
X473200Y62900D03*
X17900Y355200D03*
X241400Y355200D03*
X282200Y355200D03*
X473300Y355200D03*
X152450Y214900D03*
X69950Y104900D03*
X152450Y104900D03*
X69950Y114900D03*
X152450Y114900D03*
X69950Y124900D03*
X152450Y124900D03*
X69950Y134900D03*
X152450Y134900D03*
X69950Y144900D03*
X152450Y144900D03*
X69950Y154900D03*
X152450Y154900D03*
X69950Y164900D03*
X152450Y164900D03*
X69950Y174900D03*
X152450Y174900D03*
X69950Y184900D03*
X152450Y184900D03*
X69950Y194900D03*
X152450Y194900D03*
X69950Y204900D03*
X152450Y204900D03*
X69950Y214900D03*
X69950Y224900D03*
X69950Y234900D03*
X69950Y244900D03*
X69950Y254900D03*
X98700Y238500D03*
X98700Y208500D03*
X126800Y238600D03*
X126800Y208600D03*
X329250Y105600D03*
X411750Y105600D03*
X329250Y115600D03*
X411750Y115600D03*
X329250Y125600D03*
X411750Y125600D03*
X329250Y135600D03*
X411750Y135600D03*
X329250Y145600D03*
X411750Y145600D03*
X329250Y155600D03*
X411750Y155600D03*
X329250Y165600D03*
X411750Y165600D03*
X329250Y175600D03*
X411750Y175600D03*
X329250Y185600D03*
X411750Y185600D03*
X329250Y195600D03*
X411750Y195600D03*
X329250Y205600D03*
X411750Y205600D03*
X329250Y215600D03*
X411750Y215600D03*
X329250Y225600D03*
X329250Y235600D03*
X329250Y245600D03*
X329250Y255600D03*
X359600Y239400D03*
X359600Y209400D03*
X384600Y239600D03*
X384600Y209600D03*
X206500Y104900D03*
X206500Y114900D03*
X456500Y115600D03*
X456500Y105600D03*
X182200Y144400D03*
X182200Y174400D03*
X182400Y228000D03*
X182400Y238000D03*
X182400Y248000D03*
X211900Y238244D03*
X211900Y291000D03*
X288373Y311000D03*
X298373Y311000D03*
X308373Y311000D03*
X278373Y311000D03*
X465700Y310900D03*
X455700Y310900D03*
X35800Y314800D03*
X45800Y314800D03*
X169200Y314800D03*
X179200Y314800D03*
X243900Y305000D03*
X243900Y315000D03*

M02*
