G04 Generated by Ultiboard 13.0 *
%FSLAX25Y25*%
%MOIN*%

%ADD10C,0.00001*%
%ADD11C,0.00039*%
%ADD12C,0.00394*%
%ADD13C,0.01000*%
%ADD14C,0.00500*%


G04 ColorRGB 000000 for the following layer *
%LNDrill Symbols-Copper Top-Copper Bottom*%
%LPD*%
G54D11*
X239600Y62700D02*
X243200Y62700D01*
X241400Y60900D02*
X241400Y64500D01*
X280400Y62900D02*
X284000Y62900D01*
X282200Y61100D02*
X282200Y64700D01*
X16000Y62800D02*
X19600Y62800D01*
X17800Y61000D02*
X17800Y64600D01*
X471400Y62900D02*
X475000Y62900D01*
X473200Y61100D02*
X473200Y64700D01*
X16100Y355200D02*
X19700Y355200D01*
X17900Y353400D02*
X17900Y357000D01*
X239600Y355200D02*
X243200Y355200D01*
X241400Y353400D02*
X241400Y357000D01*
X280400Y355200D02*
X284000Y355200D01*
X282200Y353400D02*
X282200Y357000D01*
X471500Y355200D02*
X475100Y355200D01*
X473300Y353400D02*
X473300Y357000D01*
X150650Y214900D02*
X154250Y214900D01*
X152450Y213100D02*
X152450Y216700D01*
X69950Y103100D02*
X69950Y106700D01*
X68150Y104900D02*
X71750Y104900D01*
X150650Y104900D02*
X154250Y104900D01*
X152450Y103100D02*
X152450Y106700D01*
X68150Y114900D02*
X71750Y114900D01*
X69950Y113100D02*
X69950Y116700D01*
X150650Y114900D02*
X154250Y114900D01*
X152450Y113100D02*
X152450Y116700D01*
X69950Y123100D02*
X69950Y126700D01*
X68150Y124900D02*
X71750Y124900D01*
X150650Y124900D02*
X154250Y124900D01*
X152450Y123100D02*
X152450Y126700D01*
X68150Y134900D02*
X71750Y134900D01*
X69950Y133100D02*
X69950Y136700D01*
X150650Y134900D02*
X154250Y134900D01*
X152450Y133100D02*
X152450Y136700D01*
X68150Y144900D02*
X71750Y144900D01*
X69950Y143100D02*
X69950Y146700D01*
X150650Y144900D02*
X154250Y144900D01*
X152450Y143100D02*
X152450Y146700D01*
X68150Y154900D02*
X71750Y154900D01*
X69950Y153100D02*
X69950Y156700D01*
X152450Y153100D02*
X152450Y156700D01*
X150650Y154900D02*
X154250Y154900D01*
X69950Y163100D02*
X69950Y166700D01*
X68150Y164900D02*
X71750Y164900D01*
X152450Y163100D02*
X152450Y166700D01*
X150650Y164900D02*
X154250Y164900D01*
X69950Y173100D02*
X69950Y176700D01*
X68150Y174900D02*
X71750Y174900D01*
X152450Y173100D02*
X152450Y176700D01*
X150650Y174900D02*
X154250Y174900D01*
X69950Y183100D02*
X69950Y186700D01*
X68150Y184900D02*
X71750Y184900D01*
X150650Y184900D02*
X154250Y184900D01*
X152450Y183100D02*
X152450Y186700D01*
X69950Y193100D02*
X69950Y196700D01*
X68150Y194900D02*
X71750Y194900D01*
X152450Y193100D02*
X152450Y196700D01*
X150650Y194900D02*
X154250Y194900D01*
X68150Y204900D02*
X71750Y204900D01*
X69950Y203100D02*
X69950Y206700D01*
X152450Y203100D02*
X152450Y206700D01*
X150650Y204900D02*
X154250Y204900D01*
X69950Y213100D02*
X69950Y216700D01*
X68150Y214900D02*
X71750Y214900D01*
X68150Y224900D02*
X71750Y224900D01*
X69950Y223100D02*
X69950Y226700D01*
X68150Y234900D02*
X71750Y234900D01*
X69950Y233100D02*
X69950Y236700D01*
X68150Y244900D02*
X71750Y244900D01*
X69950Y243100D02*
X69950Y246700D01*
X68150Y254900D02*
X71750Y254900D01*
X69950Y253100D02*
X69950Y256700D01*
X96900Y238500D02*
X100500Y238500D01*
X98700Y236700D02*
X98700Y240300D01*
X96900Y208500D02*
X100500Y208500D01*
X98700Y206700D02*
X98700Y210300D01*
X125000Y238600D02*
X128600Y238600D01*
X126800Y236800D02*
X126800Y240400D01*
X125000Y208600D02*
X128600Y208600D01*
X126800Y206800D02*
X126800Y210400D01*
X327450Y105600D02*
X331050Y105600D01*
X329250Y103800D02*
X329250Y107400D01*
X409950Y105600D02*
X413550Y105600D01*
X411750Y103800D02*
X411750Y107400D01*
X327450Y115600D02*
X331050Y115600D01*
X329250Y113800D02*
X329250Y117400D01*
X409950Y115600D02*
X413550Y115600D01*
X411750Y113800D02*
X411750Y117400D01*
X329250Y123800D02*
X329250Y127400D01*
X327450Y125600D02*
X331050Y125600D01*
X409950Y125600D02*
X413550Y125600D01*
X411750Y123800D02*
X411750Y127400D01*
X329250Y133800D02*
X329250Y137400D01*
X327450Y135600D02*
X331050Y135600D01*
X411750Y133800D02*
X411750Y137400D01*
X409950Y135600D02*
X413550Y135600D01*
X329250Y143800D02*
X329250Y147400D01*
X327450Y145600D02*
X331050Y145600D01*
X411750Y143800D02*
X411750Y147400D01*
X409950Y145600D02*
X413550Y145600D01*
X329250Y153800D02*
X329250Y157400D01*
X327450Y155600D02*
X331050Y155600D01*
X411750Y153800D02*
X411750Y157400D01*
X409950Y155600D02*
X413550Y155600D01*
X327450Y165600D02*
X331050Y165600D01*
X329250Y163800D02*
X329250Y167400D01*
X409950Y165600D02*
X413550Y165600D01*
X411750Y163800D02*
X411750Y167400D01*
X329250Y173800D02*
X329250Y177400D01*
X327450Y175600D02*
X331050Y175600D01*
X409950Y175600D02*
X413550Y175600D01*
X411750Y173800D02*
X411750Y177400D01*
X329250Y183800D02*
X329250Y187400D01*
X327450Y185600D02*
X331050Y185600D01*
X411750Y183800D02*
X411750Y187400D01*
X409950Y185600D02*
X413550Y185600D01*
X329250Y193800D02*
X329250Y197400D01*
X327450Y195600D02*
X331050Y195600D01*
X409950Y195600D02*
X413550Y195600D01*
X411750Y193800D02*
X411750Y197400D01*
X329250Y203800D02*
X329250Y207400D01*
X327450Y205600D02*
X331050Y205600D01*
X411750Y203800D02*
X411750Y207400D01*
X409950Y205600D02*
X413550Y205600D01*
X327450Y215600D02*
X331050Y215600D01*
X329250Y213800D02*
X329250Y217400D01*
X409950Y215600D02*
X413550Y215600D01*
X411750Y213800D02*
X411750Y217400D01*
X329250Y223800D02*
X329250Y227400D01*
X327450Y225600D02*
X331050Y225600D01*
X329250Y233800D02*
X329250Y237400D01*
X327450Y235600D02*
X331050Y235600D01*
X327450Y245600D02*
X331050Y245600D01*
X329250Y243800D02*
X329250Y247400D01*
X327450Y255600D02*
X331050Y255600D01*
X329250Y253800D02*
X329250Y257400D01*
X359600Y237600D02*
X359600Y241200D01*
X357800Y239400D02*
X361400Y239400D01*
X357800Y209400D02*
X361400Y209400D01*
X359600Y207600D02*
X359600Y211200D01*
X384600Y237800D02*
X384600Y241400D01*
X382800Y239600D02*
X386400Y239600D01*
X382800Y209600D02*
X386400Y209600D01*
X384600Y207800D02*
X384600Y211400D01*
X206500Y103100D02*
X206500Y106700D01*
X204700Y104900D02*
X208300Y104900D01*
X204700Y114900D02*
X208300Y114900D01*
X206500Y113100D02*
X206500Y116700D01*
X454700Y115600D02*
X458300Y115600D01*
X456500Y113800D02*
X456500Y117400D01*
X456500Y103800D02*
X456500Y107400D01*
X454700Y105600D02*
X458300Y105600D01*
X180400Y144400D02*
X184000Y144400D01*
X182200Y142600D02*
X182200Y146200D01*
X180400Y174400D02*
X184000Y174400D01*
X182200Y172600D02*
X182200Y176200D01*
X182400Y226200D02*
X182400Y229800D01*
X180600Y228000D02*
X184200Y228000D01*
X182400Y236200D02*
X182400Y239800D01*
X180600Y238000D02*
X184200Y238000D01*
X180600Y248000D02*
X184200Y248000D01*
X182400Y246200D02*
X182400Y249800D01*
X210100Y238244D02*
X213700Y238244D01*
X211900Y236444D02*
X211900Y240044D01*
X211900Y289200D02*
X211900Y292800D01*
X210100Y291000D02*
X213700Y291000D01*
X286573Y311000D02*
X290173Y311000D01*
X288373Y309200D02*
X288373Y312800D01*
X298373Y309200D02*
X298373Y312800D01*
X296573Y311000D02*
X300173Y311000D01*
X306573Y311000D02*
X310173Y311000D01*
X308373Y309200D02*
X308373Y312800D01*
X276573Y311000D02*
X280173Y311000D01*
X278373Y309200D02*
X278373Y312800D01*
X465700Y309100D02*
X465700Y312700D01*
X463900Y310900D02*
X467500Y310900D01*
X453900Y310900D02*
X457500Y310900D01*
X455700Y309100D02*
X455700Y312700D01*
X35800Y313000D02*
X35800Y316600D01*
X34000Y314800D02*
X37600Y314800D01*
X45800Y313000D02*
X45800Y316600D01*
X44000Y314800D02*
X47600Y314800D01*
X169200Y313000D02*
X169200Y316600D01*
X167400Y314800D02*
X171000Y314800D01*
X179200Y313000D02*
X179200Y316600D01*
X177400Y314800D02*
X181000Y314800D01*
X242100Y305000D02*
X245700Y305000D01*
X243900Y303200D02*
X243900Y306800D01*
X243900Y313200D02*
X243900Y316800D01*
X242100Y315000D02*
X245700Y315000D01*
X610607Y321472D02*
X614207Y321472D01*
X612407Y319672D02*
X612407Y323272D01*
G54D12*
X787735Y319785D02*
X790360Y318098D01*
X792985Y318098D01*
X795609Y319785D01*
X795609Y323160D01*
X795609Y324847D01*
X792985Y326534D01*
X790360Y326534D01*
X787735Y324847D01*
X787735Y323160D01*
X790360Y321472D01*
X792985Y321472D01*
X795609Y323160D01*
X807420Y326534D02*
X799546Y326534D01*
X799546Y323160D01*
X804796Y323160D01*
X807420Y321472D01*
X807420Y319785D01*
X804796Y318098D01*
X799546Y318098D01*
X868838Y318098D02*
X868838Y326534D01*
X874087Y326534D01*
X876712Y324847D01*
X876712Y324003D01*
X874087Y322316D01*
X868838Y322316D01*
X884586Y318098D02*
X884586Y326534D01*
X880649Y326534D02*
X888523Y326534D01*
X892460Y318098D02*
X892460Y326534D01*
X900334Y318098D02*
X900334Y326534D01*
X892460Y322316D02*
X900334Y322316D01*
X938129Y324847D02*
X940754Y326534D01*
X943378Y326534D01*
X946003Y324847D01*
X946003Y319785D01*
X943378Y318098D01*
X940754Y318098D01*
X938129Y319785D01*
X938129Y324847D01*
X946003Y324847D02*
X938129Y319785D01*
X968313Y318098D02*
X967000Y318098D01*
X964376Y319785D01*
X964376Y324847D01*
X967000Y326534D01*
X968313Y326534D01*
X973562Y318098D02*
X973562Y326534D01*
X978811Y326534D01*
X981436Y324847D01*
X981436Y324003D01*
X978811Y322316D01*
X973562Y322316D01*
X974874Y322316D02*
X981436Y318098D01*
X985373Y319785D02*
X987998Y318098D01*
X990622Y318098D01*
X993247Y319785D01*
X993247Y324847D01*
X990622Y326534D01*
X987998Y326534D01*
X985373Y324847D01*
X985373Y319785D01*
X997184Y326534D02*
X997184Y319785D01*
X999809Y318098D01*
X1002433Y318098D01*
X1005058Y319785D01*
X1005058Y326534D01*
X1008995Y318098D02*
X1008995Y326534D01*
X1016869Y318098D01*
X1016869Y326534D01*
X1020806Y318098D02*
X1026055Y318098D01*
X1028680Y319785D01*
X1028680Y324847D01*
X1026055Y326534D01*
X1020806Y326534D01*
X1022118Y326534D02*
X1022118Y318098D01*
X1033929Y326534D02*
X1035242Y326534D01*
X1037866Y324847D01*
X1037866Y319785D01*
X1035242Y318098D01*
X1033929Y318098D01*
X654796Y325691D02*
X656108Y326534D01*
X658733Y326534D01*
X661357Y324847D01*
X661357Y323160D01*
X660045Y322316D01*
X661357Y321472D01*
X661357Y319785D01*
X658733Y318098D01*
X656108Y318098D01*
X654796Y318942D01*
X656108Y322316D02*
X660045Y322316D01*
X671856Y326534D02*
X667919Y326534D01*
X665294Y324847D01*
X665294Y321472D01*
X665294Y319785D01*
X667919Y318098D01*
X670544Y318098D01*
X673168Y319785D01*
X673168Y321472D01*
X670544Y323160D01*
X667919Y323160D01*
X665294Y321472D01*
X681042Y318098D02*
X681042Y318942D01*
X688916Y324847D02*
X691541Y326534D01*
X694166Y326534D01*
X696790Y324847D01*
X696790Y319785D01*
X694166Y318098D01*
X691541Y318098D01*
X688916Y319785D01*
X688916Y324847D01*
X696790Y324847D02*
X688916Y319785D01*
X700727Y324847D02*
X703352Y326534D01*
X705977Y326534D01*
X708601Y324847D01*
X708601Y319785D01*
X705977Y318098D01*
X703352Y318098D01*
X700727Y319785D01*
X700727Y324847D01*
X708601Y324847D02*
X700727Y319785D01*
X712538Y324847D02*
X715163Y326534D01*
X717788Y326534D01*
X720412Y324847D01*
X720412Y319785D01*
X717788Y318098D01*
X715163Y318098D01*
X712538Y319785D01*
X712538Y324847D01*
X720412Y324847D02*
X712538Y319785D01*
X724349Y324847D02*
X726974Y326534D01*
X729599Y326534D01*
X732223Y324847D01*
X732223Y319785D01*
X729599Y318098D01*
X726974Y318098D01*
X724349Y319785D01*
X724349Y324847D01*
X732223Y324847D02*
X724349Y319785D01*
X736160Y324847D02*
X738785Y326534D01*
X741410Y326534D01*
X744034Y324847D01*
X744034Y319785D01*
X741410Y318098D01*
X738785Y318098D01*
X736160Y319785D01*
X736160Y324847D01*
X744034Y324847D02*
X736160Y319785D01*
G04 ColorRGB 00FFFF for the following layer *
%LNBoard Outline*%
%LPD*%
G54D10*
G54D13*
X-1500Y42800D02*
X493100Y42800D01*
X493100Y375000D01*
X-1500Y375000D01*
X-1500Y42800D01*
G54D14*
X-2600Y41800D02*
X-2600Y75220D01*
X-2600Y41800D02*
X47070Y41800D01*
X494100Y41800D02*
X444430Y41800D01*
X494100Y41800D02*
X494100Y75220D01*
X494100Y376000D02*
X494100Y342580D01*
X494100Y376000D02*
X444430Y376000D01*
X-2600Y376000D02*
X47070Y376000D01*
X-2600Y376000D02*
X-2600Y342580D01*
X-22285Y41800D02*
X-61655Y41800D01*
X-41970Y22115D02*
X-41970Y61485D01*
X-56734Y41800D02*
G75*
D01*
G02X-56734Y41800I14764J0*
G01*
X513785Y41800D02*
X553155Y41800D01*
X533470Y22115D02*
X533470Y61485D01*
X518706Y41800D02*
G75*
D01*
G02X518706Y41800I14764J0*
G01*
X528549Y41800D02*
G75*
D01*
G02X528549Y41800I4921J0*
G01*
X-22285Y376000D02*
X-61655Y376000D01*
X-41970Y356315D02*
X-41970Y395685D01*
X-56734Y376000D02*
G75*
D01*
G02X-56734Y376000I14764J0*
G01*
X-51813Y376000D02*
G75*
D01*
G02X-51813Y376000I9843J0*
G01*
X-46891Y376000D02*
G75*
D01*
G02X-46891Y376000I4921J0*
G01*
G04 ColorRGB 66FFCC for the following layer *
%LNLegend Description*%
%LPD*%
G54D12*
X574809Y313402D02*
X1057092Y313402D01*
X1057092Y377969D01*
X574809Y377969D01*
X574809Y313402D01*
X650006Y345685D02*
X650006Y313402D01*
X748824Y345685D02*
X748824Y313402D01*
X847643Y345685D02*
X847643Y313402D01*
X922840Y345685D02*
X922840Y313402D01*
X1057092Y345685D02*
X1057092Y313402D01*
X574809Y329543D02*
X1057092Y329543D01*
X578286Y335927D02*
X580911Y334240D01*
X583536Y334240D01*
X586160Y335927D01*
X578286Y340989D01*
X580911Y342676D01*
X583536Y342676D01*
X586160Y340989D01*
X590097Y331709D02*
X591410Y331709D01*
X597971Y340145D01*
X590097Y340145D02*
X594034Y335083D01*
X601908Y334240D02*
X601908Y339301D01*
X601908Y340145D01*
X601908Y339301D02*
X603221Y340145D01*
X604533Y340145D01*
X605845Y339301D01*
X607158Y340145D01*
X608470Y340145D01*
X609782Y339301D01*
X609782Y334240D01*
X605845Y339301D02*
X605845Y334240D01*
X613719Y335927D02*
X616344Y334240D01*
X618969Y334240D01*
X621593Y335927D01*
X621593Y337614D01*
X618969Y339301D01*
X616344Y339301D01*
X613719Y337614D01*
X613719Y342676D02*
X613719Y334240D01*
X625530Y335927D02*
X628155Y334240D01*
X630780Y334240D01*
X633404Y335927D01*
X633404Y338458D01*
X630780Y340145D01*
X628155Y340145D01*
X625530Y338458D01*
X625530Y335927D01*
X638654Y342676D02*
X638654Y335927D01*
X641278Y334240D01*
X677105Y335927D02*
X679730Y334240D01*
X682355Y334240D01*
X684979Y335927D01*
X677105Y340989D01*
X679730Y342676D01*
X682355Y342676D01*
X684979Y340989D01*
X692853Y334240D02*
X692853Y339301D01*
X692853Y340989D02*
X692853Y341832D01*
X700727Y340145D02*
X708601Y340145D01*
X700727Y334240D01*
X708601Y334240D01*
X720412Y335927D02*
X717788Y334240D01*
X715163Y334240D01*
X712538Y335927D01*
X712538Y338458D01*
X715163Y340145D01*
X717788Y340145D01*
X720412Y338458D01*
X719100Y337614D01*
X712538Y337614D01*
X752302Y335927D02*
X754927Y334240D01*
X757551Y334240D01*
X760176Y335927D01*
X760176Y340989D01*
X757551Y342676D01*
X754927Y342676D01*
X752302Y340989D01*
X752302Y335927D01*
X757551Y335927D02*
X760176Y334240D01*
X764113Y340145D02*
X764113Y335927D01*
X766738Y334240D01*
X769362Y334240D01*
X771987Y335927D01*
X771987Y340145D01*
X771987Y335927D02*
X771987Y334240D01*
X777236Y340145D02*
X781173Y340145D01*
X782486Y339301D01*
X782486Y335083D01*
X781173Y334240D01*
X777236Y334240D01*
X775924Y335083D01*
X775924Y336771D01*
X777236Y337614D01*
X782486Y337614D01*
X782486Y335083D02*
X783798Y334240D01*
X787735Y334240D02*
X787735Y339301D01*
X787735Y340145D01*
X787735Y339301D02*
X789048Y340145D01*
X791672Y340145D01*
X792985Y339301D01*
X792985Y334240D01*
X806108Y335083D02*
X804796Y334240D01*
X803483Y335083D01*
X803483Y342676D01*
X800859Y340145D02*
X806108Y340145D01*
X815294Y334240D02*
X815294Y339301D01*
X815294Y340989D02*
X815294Y341832D01*
X829730Y335083D02*
X828418Y334240D01*
X827105Y335083D01*
X827105Y342676D01*
X824481Y340145D02*
X829730Y340145D01*
X834979Y331709D02*
X836292Y331709D01*
X842853Y340145D01*
X834979Y340145D02*
X838916Y335083D01*
X851121Y334240D02*
X851121Y342676D01*
X856370Y342676D01*
X858995Y340989D01*
X858995Y340145D01*
X856370Y338458D01*
X851121Y338458D01*
X864244Y342676D02*
X864244Y335927D01*
X866869Y334240D01*
X876055Y340145D02*
X879992Y340145D01*
X881305Y339301D01*
X881305Y335083D01*
X879992Y334240D01*
X876055Y334240D01*
X874743Y335083D01*
X874743Y336771D01*
X876055Y337614D01*
X881305Y337614D01*
X881305Y335083D02*
X882617Y334240D01*
X893116Y335083D02*
X891803Y334240D01*
X890491Y335083D01*
X890491Y342676D01*
X887866Y340145D02*
X893116Y340145D01*
X906239Y335927D02*
X903614Y334240D01*
X900990Y334240D01*
X898365Y335927D01*
X898365Y338458D01*
X900990Y340145D01*
X903614Y340145D01*
X906239Y338458D01*
X904927Y337614D01*
X898365Y337614D01*
X918050Y335927D02*
X915425Y334240D01*
X912801Y334240D01*
X910176Y335927D01*
X910176Y337614D01*
X912801Y339301D01*
X915425Y339301D01*
X918050Y337614D01*
X918050Y342676D02*
X918050Y334240D01*
X926318Y335927D02*
X928943Y334240D01*
X931567Y334240D01*
X934192Y335927D01*
X926318Y340989D01*
X928943Y342676D01*
X931567Y342676D01*
X934192Y340989D01*
X939441Y342676D02*
X939441Y335927D01*
X942066Y334240D01*
X949940Y335927D02*
X952565Y334240D01*
X955189Y334240D01*
X957814Y335927D01*
X957814Y338458D01*
X955189Y340145D01*
X952565Y340145D01*
X949940Y338458D01*
X949940Y335927D01*
X968313Y335083D02*
X967000Y334240D01*
X965688Y335083D01*
X965688Y342676D01*
X963063Y340145D02*
X968313Y340145D01*
X985373Y342676D02*
X985373Y334240D01*
X993247Y334240D01*
X1005058Y335927D02*
X1002433Y334240D01*
X999809Y334240D01*
X997184Y335927D01*
X997184Y338458D01*
X999809Y340145D01*
X1002433Y340145D01*
X1005058Y338458D01*
X1003746Y337614D01*
X997184Y337614D01*
X1008995Y334240D02*
X1008995Y339301D01*
X1008995Y340145D01*
X1008995Y339301D02*
X1010307Y340145D01*
X1012932Y340145D01*
X1014244Y339301D01*
X1014244Y334240D01*
X1020806Y333396D02*
X1023431Y331709D01*
X1026055Y331709D01*
X1028680Y333396D01*
X1028680Y335927D01*
X1028680Y338458D01*
X1026055Y340145D01*
X1023431Y340145D01*
X1020806Y338458D01*
X1020806Y335927D01*
X1023431Y334240D01*
X1026055Y334240D01*
X1028680Y335927D01*
X1039179Y335083D02*
X1037866Y334240D01*
X1036554Y335083D01*
X1036554Y342676D01*
X1033929Y340145D02*
X1039179Y340145D01*
X1044428Y338458D02*
X1047053Y340145D01*
X1049677Y340145D01*
X1052302Y338458D01*
X1052302Y334240D01*
X1044428Y342676D02*
X1044428Y334240D01*
X574809Y345685D02*
X1057092Y345685D01*
X699152Y350381D02*
X699152Y355443D01*
X701777Y358818D01*
X704402Y358818D01*
X707027Y355443D01*
X707027Y350381D01*
X699152Y352912D02*
X707027Y352912D01*
X712276Y358818D02*
X712276Y352069D01*
X714901Y350381D01*
X724087Y358818D02*
X724087Y352069D01*
X726712Y350381D01*
X746397Y356287D02*
X746397Y352069D01*
X749021Y350381D01*
X751646Y350381D01*
X754271Y352069D01*
X754271Y356287D01*
X754271Y352069D02*
X754271Y350381D01*
X758208Y350381D02*
X758208Y355443D01*
X758208Y356287D01*
X758208Y355443D02*
X759520Y356287D01*
X762145Y356287D01*
X763457Y355443D01*
X763457Y350381D01*
X773956Y350381D02*
X773956Y355443D01*
X773956Y357130D02*
X773956Y357974D01*
X788391Y351225D02*
X787079Y350381D01*
X785767Y351225D01*
X785767Y358818D01*
X783142Y356287D02*
X788391Y356287D01*
X793641Y352069D02*
X796265Y350381D01*
X798890Y350381D01*
X801515Y352069D01*
X793641Y354600D01*
X796265Y356287D01*
X798890Y356287D01*
X801515Y354600D01*
X818575Y356287D02*
X822512Y356287D01*
X823824Y355443D01*
X823824Y351225D01*
X822512Y350381D01*
X818575Y350381D01*
X817263Y351225D01*
X817263Y352912D01*
X818575Y353756D01*
X823824Y353756D01*
X823824Y351225D02*
X825137Y350381D01*
X829074Y353756D02*
X833011Y356287D01*
X834323Y356287D01*
X836948Y354600D01*
X829074Y350381D02*
X829074Y356287D01*
X848759Y352069D02*
X846134Y350381D01*
X843509Y350381D01*
X840885Y352069D01*
X840885Y354600D01*
X843509Y356287D01*
X846134Y356287D01*
X848759Y354600D01*
X847446Y353756D01*
X840885Y353756D01*
X868444Y350381D02*
X868444Y355443D01*
X868444Y357130D02*
X868444Y357974D01*
X876318Y350381D02*
X876318Y355443D01*
X876318Y356287D01*
X876318Y355443D02*
X877630Y356287D01*
X880255Y356287D01*
X881567Y355443D01*
X881567Y350381D01*
X899940Y350381D02*
X899940Y355443D01*
X899940Y356287D01*
X899940Y355443D02*
X901252Y356287D01*
X902565Y356287D01*
X903877Y355443D01*
X905189Y356287D01*
X906502Y356287D01*
X907814Y355443D01*
X907814Y350381D01*
X903877Y355443D02*
X903877Y350381D01*
X915688Y350381D02*
X915688Y355443D01*
X915688Y357130D02*
X915688Y357974D01*
X924874Y358818D02*
X924874Y352069D01*
X927499Y350381D01*
X574809Y361827D02*
X1057092Y361827D01*
X746397Y366523D02*
X751646Y366523D01*
X754271Y368210D01*
X754271Y373272D01*
X751646Y374960D01*
X746397Y374960D01*
X747709Y374960D02*
X747709Y366523D01*
X758208Y369898D02*
X762145Y372429D01*
X763457Y372429D01*
X766082Y370741D01*
X758208Y366523D02*
X758208Y372429D01*
X773956Y366523D02*
X773956Y371585D01*
X773956Y373272D02*
X773956Y374116D01*
X783142Y374960D02*
X783142Y368210D01*
X785767Y366523D01*
X794953Y374960D02*
X794953Y368210D01*
X797578Y366523D01*
X817263Y374960D02*
X817263Y366523D01*
X825137Y366523D01*
X836948Y368210D02*
X834323Y366523D01*
X831698Y366523D01*
X829074Y368210D01*
X829074Y370741D01*
X831698Y372429D01*
X834323Y372429D01*
X836948Y370741D01*
X835635Y369898D01*
X829074Y369898D01*
X840885Y365679D02*
X843509Y363992D01*
X846134Y363992D01*
X848759Y365679D01*
X848759Y368210D01*
X848759Y370741D01*
X846134Y372429D01*
X843509Y372429D01*
X840885Y370741D01*
X840885Y368210D01*
X843509Y366523D01*
X846134Y366523D01*
X848759Y368210D01*
X860570Y368210D02*
X857945Y366523D01*
X855320Y366523D01*
X852696Y368210D01*
X852696Y370741D01*
X855320Y372429D01*
X857945Y372429D01*
X860570Y370741D01*
X859257Y369898D01*
X852696Y369898D01*
X864507Y366523D02*
X864507Y371585D01*
X864507Y372429D01*
X864507Y371585D02*
X865819Y372429D01*
X868444Y372429D01*
X869756Y371585D01*
X869756Y366523D01*
X884192Y368210D02*
X881567Y366523D01*
X878943Y366523D01*
X876318Y368210D01*
X876318Y369898D01*
X878943Y371585D01*
X881567Y371585D01*
X884192Y369898D01*
X884192Y374960D02*
X884192Y366523D01*

M02*
